CalSansUI-Regular.ufo
<glyph name="quotesingle" format="2">
  <advance width="184.0"/>
  <unicode hex="0027"/>
  <outline>
    <contour>
      <point x="37.25" y="700.0" type="line"/>
      <point x="64.0" y="431.75" type="line"/>
      <point x="119.0" y="431.75" type="line"/>
      <point x="146.75" y="700.0" type="line"/>
    </contour>
  </outline>
</glyph>
<glyph name="plus" format="2">
  <advance width="596.0"/>
  <unicode hex="002B"/>
  <outline>
    <contour>
      <point x="79.5" y="275.25" type="line"/>
      <point x="516.5" y="275.25" type="line"/>
      <point x="516.5" y="356.75" type="line"/>
      <point x="79.5" y="356.75" type="line"/>
    </contour>
    <contour>
      <point x="252.75" y="91.5" type="line"/>
      <point x="343.25" y="91.5" type="line"/>
      <point x="343.25" y="538.5" type="line"/>
      <point x="252.75" y="538.5" type="line"/>
    </contour>
  </outline>
</glyph>
<glyph name="five" format="2">
  <advance width="587.0"/>
  <unicode hex="0035"/>
  <outline>
    <contour>
      <point x="276.5" y="-13.0" type="curve" smooth="yes"/>
      <point x="417.75" y="-13.0"/>
      <point x="517.25" y="85.0"/>
      <point x="517.25" y="221.0" type="curve" smooth="yes"/>
      <point x="517.25" y="337.5"/>
      <point x="441.5" y="438.25"/>
      <point x="296.5" y="438.25" type="curve" smooth="yes"/>
      <point x="274.5" y="438.25"/>
      <point x="250.25" y="433.75"/>
      <point x="229.0" y="426.5" type="curve"/>
      <point x="227.0" y="428.5" type="line"/>
      <point x="273.75" y="657.0" type="line"/>
      <point x="201.5" y="613.75" type="line"/>
      <point x="478.75" y="613.75" type="line"/>
      <point x="478.75" y="700.0" type="line"/>
      <point x="189.25" y="700.0" type="line"/>
      <point x="105.25" y="297.25" type="line"/>
      <point x="166.5" y="334.0"/>
      <point x="220.75" y="352.5"/>
      <point x="271.5" y="352.5" type="curve" smooth="yes"/>
      <point x="365.75" y="352.5"/>
      <point x="418.0" y="295.75"/>
      <point x="418.0" y="218.0" type="curve" smooth="yes"/>
      <point x="418.0" y="133.5"/>
      <point x="358.5" y="77.25"/>
      <point x="277.5" y="76.5" type="curve" smooth="yes"/>
      <point x="214.0" y="75.75"/>
      <point x="162.75" y="101.0"/>
      <point x="118.25" y="148.5" type="curve"/>
      <point x="53.75" y="83.75" type="line"/>
      <point x="109.0" y="18.0"/>
      <point x="187.75" y="-13.0"/>
    </contour>
  </outline>
</glyph>
<glyph name="six" format="2">
  <advance width="576.25"/>
  <unicode hex="0036"/>
  <outline>
    <contour>
      <point x="294.75" y="-13.0" type="curve" smooth="yes"/>
      <point x="434.5" y="-13.0"/>
      <point x="532.5" y="82.75"/>
      <point x="532.5" y="217.25" type="curve" smooth="yes"/>
      <point x="532.5" y="380.0"/>
      <point x="389.0" y="472.0"/>
      <point x="249.25" y="415.75" type="curve"/>
      <point x="248.0" y="418.25" type="line"/>
      <point x="420.25" y="700.0" type="line"/>
      <point x="304.5" y="700.0" type="line"/>
      <point x="121.75" y="401.75" type="line" smooth="yes"/>
      <point x="84.75" y="342.0"/>
      <point x="55.25" y="276.5"/>
      <point x="55.25" y="215.0" type="curve" smooth="yes"/>
      <point x="55.25" y="82.75"/>
      <point x="152.75" y="-13.0"/>
    </contour>
    <contour>
      <point x="294.75" y="75.75" type="curve" smooth="yes"/>
      <point x="215.75" y="75.75"/>
      <point x="156.75" y="131.75"/>
      <point x="156.75" y="217.25" type="curve" smooth="yes"/>
      <point x="156.75" y="293.0"/>
      <point x="212.75" y="354.75"/>
      <point x="300.25" y="354.75" type="curve" smooth="yes"/>
      <point x="374.25" y="354.75"/>
      <point x="432.5" y="293.0"/>
      <point x="432.5" y="215.0" type="curve" smooth="yes"/>
      <point x="432.5" y="131.75"/>
      <point x="372.0" y="75.75"/>
    </contour>
  </outline>
</glyph>
<glyph name="G" format="2">
  <advance width="734.75"/>
  <unicode hex="0047"/>
  <anchor x="399.25" y="0.0" name="bottom"/>
  <anchor x="524.5" y="9.0" name="ogonek"/>
  <anchor x="396.75" y="700.0" name="top"/>
  <outline>
    <contour>
      <point x="398.75" y="-13.0" type="curve" smooth="yes"/>
      <point x="512.75" y="-13.0"/>
      <point x="603.5" y="29.75"/>
      <point x="669.25" y="97.75" type="curve"/>
      <point x="669.25" y="376.75" type="line"/>
      <point x="363.25" y="376.75" type="line"/>
      <point x="363.25" y="288.75" type="line"/>
      <point x="617.25" y="289.5" type="line"/>
      <point x="574.5" y="312.25" type="line"/>
      <point x="574.5" y="90.75" type="line"/>
      <point x="601.25" y="160.75" type="line"/>
      <point x="545.75" y="106.5"/>
      <point x="484.0" y="78.5"/>
      <point x="400.25" y="78.5" type="curve" smooth="yes"/>
      <point x="249.25" y="78.5"/>
      <point x="142.75" y="195.5"/>
      <point x="142.75" y="349.0" type="curve" smooth="yes"/>
      <point x="142.75" y="504.0"/>
      <point x="241.0" y="621.5"/>
      <point x="400.5" y="621.5" type="curve" smooth="yes"/>
      <point x="474.5" y="621.5"/>
      <point x="536.75" y="598.75"/>
      <point x="585.5" y="539.75" type="curve"/>
      <point x="656.25" y="602.5" type="line"/>
      <point x="592.5" y="678.25"/>
      <point x="505.0" y="713.0"/>
      <point x="398.75" y="713.0" type="curve" smooth="yes"/>
      <point x="191.5" y="713.0"/>
      <point x="41.25" y="552.75"/>
      <point x="41.25" y="349.0" type="curve" smooth="yes"/>
      <point x="41.25" y="143.5"/>
      <point x="192.0" y="-13.0"/>
    </contour>
  </outline>
</glyph>
<glyph name="K" format="2">
  <advance width="612.0"/>
  <unicode hex="004B"/>
  <anchor x="301.25" y="0.0" name="bottom"/>
  <anchor x="468.75" y="0.0" name="ogonek"/>
  <anchor x="291.25" y="701.0" name="top"/>
  <outline>
    <contour>
      <point x="81.5" y="0.0" type="line"/>
      <point x="178.0" y="0.0" type="line"/>
      <point x="178.0" y="335.25" type="line"/>
      <point x="180.25" y="335.25" type="line"/>
      <point x="468.75" y="0.0" type="line"/>
      <point x="603.5" y="0.0" type="line"/>
      <point x="274.25" y="369.0" type="line"/>
      <point x="582.0" y="700.0" type="line"/>
      <point x="448.5" y="700.0" type="line"/>
      <point x="180.25" y="389.25" type="line"/>
      <point x="178.0" y="389.25" type="line"/>
      <point x="178.0" y="700.0" type="line"/>
      <point x="81.5" y="700.0" type="line"/>
    </contour>
  </outline>
</glyph>
<glyph name="N" format="2">
  <advance width="760.25"/>
  <unicode hex="004E"/>
  <anchor x="387.5" y="0.0" name="bottom"/>
  <anchor x="668.5" y="0.0" name="ogonek"/>
  <anchor x="378.5" y="700.0" name="top"/>
  <outline>
    <contour>
      <point x="81.5" y="0.0" type="line"/>
      <point x="174.75" y="0.0" type="line"/>
      <point x="174.75" y="431.0" type="line" smooth="yes"/>
      <point x="174.75" y="488.25"/>
      <point x="172.75" y="527.0"/>
      <point x="168.75" y="553.25" type="curve"/>
      <point x="171.75" y="553.25" type="line"/>
      <point x="176.5" y="539.75"/>
      <point x="193.5" y="512.75"/>
      <point x="213.5" y="488.5" type="curve" smooth="yes"/>
      <point x="603.5" y="0.0" type="line"/>
      <point x="678.75" y="0.0" type="line"/>
      <point x="678.75" y="700.0" type="line"/>
      <point x="585.5" y="700.0" type="line"/>
      <point x="585.5" y="279.0" type="line" smooth="yes"/>
      <point x="585.5" y="207.5"/>
      <point x="588.0" y="174.75"/>
      <point x="592.75" y="152.75" type="curve"/>
      <point x="588.75" y="152.75" type="line"/>
      <point x="584.0" y="166.5"/>
      <point x="562.75" y="200.25"/>
      <point x="544.25" y="223.0" type="curve" smooth="yes"/>
      <point x="163.5" y="700.0" type="line"/>
      <point x="81.5" y="700.0" type="line"/>
    </contour>
  </outline>
</glyph>
<glyph name="S" format="2">
  <advance width="591.25"/>
  <unicode hex="0053"/>
  <anchor x="296.0" y="0.0" name="bottom"/>
  <anchor x="387.75" y="0.0" name="ogonek"/>
  <anchor x="312.25" y="700.0" name="top"/>
  <outline>
    <contour>
      <point x="296.75" y="-13.0" type="curve" smooth="yes"/>
      <point x="434.75" y="-13.0"/>
      <point x="534.0" y="65.5"/>
      <point x="534.0" y="191.75" type="curve" smooth="yes"/>
      <point x="534.0" y="436.75"/>
      <point x="185.5" y="372.25"/>
      <point x="185.5" y="524.0" type="curve" smooth="yes"/>
      <point x="185.5" y="582.5"/>
      <point x="230.25" y="623.25"/>
      <point x="310.5" y="623.25" type="curve" smooth="yes"/>
      <point x="368.0" y="623.25"/>
      <point x="413.75" y="594.25"/>
      <point x="448.5" y="537.75" type="curve"/>
      <point x="529.25" y="591.5" type="line"/>
      <point x="481.5" y="663.75"/>
      <point x="415.0" y="712.75"/>
      <point x="312.0" y="712.75" type="curve" smooth="yes"/>
      <point x="170.75" y="712.75"/>
      <point x="84.75" y="621.5"/>
      <point x="84.75" y="519.5" type="curve" smooth="yes"/>
      <point x="84.75" y="277.25"/>
      <point x="432.5" y="350.5"/>
      <point x="432.5" y="187.5" type="curve" smooth="yes"/>
      <point x="432.5" y="114.5"/>
      <point x="372.0" y="77.5"/>
      <point x="302.0" y="77.5" type="curve" smooth="yes"/>
      <point x="228.25" y="77.5"/>
      <point x="172.5" y="110.25"/>
      <point x="129.25" y="181.0" type="curve"/>
      <point x="46.5" y="124.0" type="line"/>
      <point x="103.5" y="34.25"/>
      <point x="190.25" y="-13.0"/>
    </contour>
  </outline>
</glyph>
<glyph name="backslash" format="2">
  <advance width="483.75"/>
  <unicode hex="005C"/>
  <outline>
    <contour>
      <point x="336.0" y="-13.0" type="line"/>
      <point x="428.5" y="-13.0" type="line"/>
      <point x="154.75" y="740.0" type="line"/>
      <point x="60.25" y="740.0" type="line"/>
    </contour>
  </outline>
</glyph>
<glyph name="asciicircum" format="2">
  <advance width="600.0"/>
  <unicode hex="005E"/>
  <outline>
    <contour>
      <point x="99.5" y="474.0" type="line"/>
      <point x="210.25" y="474.0" type="line"/>
      <point x="300.75" y="639.0" type="line"/>
      <point x="305.0" y="639.0" type="line"/>
      <point x="393.0" y="474.0" type="line"/>
      <point x="500.5" y="474.0" type="line"/>
      <point x="351.75" y="713.0" type="line"/>
      <point x="254.75" y="713.0" type="line"/>
    </contour>
  </outline>
</glyph>
<glyph name="q" format="2">
  <advance width="618.5"/>
  <unicode hex="0071"/>
  <anchor x="447.5" y="-165.0" name="bottom"/>
  <anchor x="353.0" y="0.0" name="ogonek"/>
  <anchor x="285.5" y="493.75" name="top"/>
  <outline>
    <contour>
      <point x="283.25" y="-13.0" type="curve" smooth="yes"/>
      <point x="362.5" y="-13.0"/>
      <point x="424.0" y="30.75"/>
      <point x="449.75" y="89.0" type="curve"/>
      <point x="455.75" y="89.0" type="line"/>
      <point x="455.75" y="-220.0" type="line"/>
      <point x="549.5" y="-220.0" type="line"/>
      <point x="549.5" y="493.75" type="line"/>
      <point x="460.0" y="493.75" type="line"/>
      <point x="460.0" y="406.5" type="line"/>
      <point x="454.0" y="406.5" type="line"/>
      <point x="428.25" y="463.75"/>
      <point x="365.25" y="506.75"/>
      <point x="283.25" y="506.75" type="curve" smooth="yes"/>
      <point x="141.0" y="506.75"/>
      <point x="37.0" y="395.25"/>
      <point x="37.0" y="246.0" type="curve" smooth="yes"/>
      <point x="37.0" y="97.0"/>
      <point x="141.0" y="-13.0"/>
    </contour>
    <contour>
      <point x="294.75" y="73.25" type="curve" smooth="yes"/>
      <point x="194.75" y="73.25"/>
      <point x="130.75" y="147.75"/>
      <point x="130.75" y="247.0" type="curve" smooth="yes"/>
      <point x="130.75" y="347.5"/>
      <point x="194.75" y="420.5"/>
      <point x="294.75" y="420.5" type="curve" smooth="yes"/>
      <point x="392.5" y="420.5"/>
      <point x="456.5" y="346.0"/>
      <point x="456.5" y="246.0" type="curve" smooth="yes"/>
      <point x="456.5" y="149.25"/>
      <point x="392.5" y="73.25"/>
    </contour>
  </outline>
</glyph>
<glyph name="t" format="2">
  <advance width="394.75"/>
  <unicode hex="0074"/>
  <anchor x="187.5" y="321.5" name="bar"/>
  <anchor x="249.0" y="0.0" name="bottom"/>
  <anchor x="176.5" y="276.0" name="center"/>
  <anchor x="176.5" y="620.5" name="top"/>
  <anchor x="304.75" y="740.0" name="topright"/>
  <outline>
    <contour>
      <point x="287.5" y="-13.0" type="curve" smooth="yes"/>
      <point x="320.5" y="-13.75"/>
      <point x="340.5" y="-10.75"/>
      <point x="377.0" y="-3.25" type="curve"/>
      <point x="377.0" y="78.5" type="line"/>
      <point x="352.25" y="72.0"/>
      <point x="328.25" y="70.5"/>
      <point x="306.25" y="70.5" type="curve" smooth="yes"/>
      <point x="251.25" y="70.5"/>
      <point x="221.0" y="97.5"/>
      <point x="221.0" y="153.0" type="curve" smooth="yes"/>
      <point x="221.0" y="627.5" type="line"/>
      <point x="127.25" y="613.5" type="line"/>
      <point x="127.25" y="146.5" type="line" smooth="yes"/>
      <point x="127.25" y="46.5"/>
      <point x="187.25" y="-10.75"/>
    </contour>
    <contour>
      <point x="17.75" y="409.75" type="line"/>
      <point x="377.0" y="409.75" type="line"/>
      <point x="377.0" y="493.75" type="line"/>
      <point x="17.75" y="493.75" type="line"/>
    </contour>
  </outline>
</glyph>
<glyph name="Thorn" format="2">
  <advance width="586.75"/>
  <unicode hex="00DE"/>
  <anchor x="300.0" y="0.0" name="bottom"/>
  <anchor x="300.0" y="700.0" name="top"/>
  <outline>
    <contour>
      <point x="81.5" y="0.0" type="line"/>
      <point x="178.0" y="0.0" type="line"/>
      <point x="178.0" y="143.5" type="line"/>
      <point x="311.0" y="143.5" type="line" smooth="yes"/>
      <point x="445.5" y="143.5"/>
      <point x="545.25" y="212.75"/>
      <point x="545.25" y="352.5" type="curve" smooth="yes"/>
      <point x="545.25" y="491.25"/>
      <point x="444.75" y="559.75"/>
      <point x="311.0" y="559.75" type="curve" smooth="yes"/>
      <point x="178.0" y="559.75" type="line"/>
      <point x="178.0" y="700.0" type="line"/>
      <point x="81.5" y="700.0" type="line"/>
    </contour>
    <contour>
      <point x="178.0" y="234.25" type="line"/>
      <point x="178.0" y="469.0" type="line"/>
      <point x="303.0" y="469.0" type="line" smooth="yes"/>
      <point x="389.5" y="469.0"/>
      <point x="446.0" y="437.75"/>
      <point x="446.0" y="352.25" type="curve" smooth="yes"/>
      <point x="446.0" y="265.0"/>
      <point x="389.5" y="234.25"/>
      <point x="303.0" y="234.25" type="curve" smooth="yes"/>
    </contour>
  </outline>
</glyph>
<glyph name="Dcroat" format="2">
  <advance width="718.0"/>
  <unicode hex="0110"/>
  <anchor x="326.5" y="0.0" name="bottom"/>
  <anchor x="133.5" y="349.0" name="center"/>
  <anchor x="344.5" y="700.0" name="top"/>
  <outline>
    <contour>
      <point x="13.0" y="318.25" type="line"/>
      <point x="367.5" y="318.25" type="line"/>
      <point x="367.5" y="399.25" type="line"/>
      <point x="13.0" y="399.25" type="line"/>
    </contour>
    <component base="D"/>
  </outline>
</glyph>
<glyph name="lslash" format="2">
  <advance width="243.0"/>
  <unicode hex="0142"/>
  <anchor x="121.25" y="0.0" name="bottom"/>
  <anchor x="121.25" y="393.0" name="center"/>
  <anchor x="168.0" y="0.0" name="ogonek"/>
  <anchor x="121.5" y="700.0" name="top"/>
  <anchor x="218.25" y="700.0" name="topright"/>
  <outline>
    <contour>
      <point x="1.0" y="265.5" type="line"/>
      <point x="115.0" y="340.0" type="line"/>
      <point x="125.25" y="340.0" type="line"/>
      <point x="241.75" y="415.75" type="line"/>
      <point x="241.75" y="504.0" type="line"/>
      <point x="125.25" y="428.25" type="line"/>
      <point x="115.0" y="428.25" type="line"/>
      <point x="1.0" y="353.75" type="line"/>
    </contour>
    <component base="l" xOffset="2.75"/>
  </outline>
</glyph>
<glyph name="Schwa" format="2">
  <advance width="774.5"/>
  <unicode hex="018F"/>
  <outline>
    <contour>
      <point x="378.25" y="-13.0" type="curve" smooth="yes"/>
      <point x="584.0" y="-13.0"/>
      <point x="733.25" y="145.25"/>
      <point x="733.25" y="349.0" type="curve" smooth="yes"/>
      <point x="733.25" y="553.75"/>
      <point x="587.0" y="713.0"/>
      <point x="378.25" y="713.0" type="curve" smooth="yes"/>
      <point x="258.25" y="713.0"/>
      <point x="163.0" y="666.25"/>
      <point x="88.25" y="569.75" type="curve"/>
      <point x="162.5" y="513.25" type="line"/>
      <point x="212.0" y="583.75"/>
      <point x="283.5" y="621.5"/>
      <point x="376.75" y="621.5" type="curve" smooth="yes"/>
      <point x="533.5" y="621.5"/>
      <point x="631.75" y="502.5"/>
      <point x="631.75" y="349.0" type="curve" smooth="yes"/>
      <point x="631.75" y="195.5"/>
      <point x="529.0" y="78.5"/>
      <point x="376.75" y="78.5" type="curve" smooth="yes"/>
      <point x="237.25" y="78.5"/>
      <point x="143.75" y="170.5"/>
      <point x="140.0" y="309.75" type="curve"/>
      <point x="108.0" y="288.5" type="line"/>
      <point x="665.75" y="287.75" type="line"/>
      <point x="665.75" y="374.25" type="line"/>
      <point x="44.75" y="374.25" type="line"/>
      <point x="42.5" y="360.0"/>
      <point x="41.25" y="339.5"/>
      <point x="41.25" y="321.25" type="curve" smooth="yes"/>
      <point x="41.25" y="126.5"/>
      <point x="176.5" y="-13.0"/>
    </contour>
  </outline>
</glyph>
<glyph name="florin" format="2">
  <advance width="615.5"/>
  <unicode hex="0192"/>
  <outline>
    <contour>
      <point x="45.75" y="1.0" type="line"/>
      <point x="74.75" y="-3.0"/>
      <point x="104.75" y="-7.0"/>
      <point x="133.75" y="-7.0" type="curve" smooth="yes"/>
      <point x="227.75" y="-7.0"/>
      <point x="290.25" y="33.0"/>
      <point x="321.25" y="172.0" type="curve" smooth="yes"/>
      <point x="394.25" y="504.0" type="line" smooth="yes"/>
      <point x="416.5" y="605.25"/>
      <point x="454.75" y="619.25"/>
      <point x="508.75" y="619.25" type="curve" smooth="yes"/>
      <point x="528.25" y="619.25"/>
      <point x="549.75" y="616.0"/>
      <point x="570.75" y="612.25" type="curve"/>
      <point x="570.75" y="700.0" type="line"/>
      <point x="552.0" y="705.25"/>
      <point x="530.0" y="707.0"/>
      <point x="505.25" y="707.0" type="curve" smooth="yes"/>
      <point x="404.25" y="707.0"/>
      <point x="334.25" y="661.0"/>
      <point x="303.25" y="521.0" type="curve" smooth="yes"/>
      <point x="230.25" y="189.0" type="line" smooth="yes"/>
      <point x="208.75" y="91.5"/>
      <point x="168.75" y="79.75"/>
      <point x="122.75" y="79.75" type="curve" smooth="yes"/>
      <point x="96.75" y="79.75"/>
      <point x="71.75" y="82.75"/>
      <point x="45.75" y="86.75" type="curve"/>
    </contour>
    <contour>
      <point x="75.75" y="330.5" type="line"/>
      <point x="540.75" y="330.5" type="line"/>
      <point x="540.75" y="411.25" type="line"/>
      <point x="75.75" y="411.25" type="line"/>
    </contour>
  </outline>
</glyph>
<glyph name="tildecomb" format="2">
  <unicode hex="0303"/>
  <anchor x="0.0" y="493.75" name="_top"/>
  <anchor x="0.0" y="665.0" name="top"/>
  <outline>
    <contour>
      <point x="68.75" y="574.25" type="curve" smooth="yes"/>
      <point x="123.0" y="574.25"/>
      <point x="160.25" y="616.25"/>
      <point x="160.25" y="688.75" type="curve"/>
      <point x="104.25" y="688.75" type="line"/>
      <point x="104.25" y="655.25"/>
      <point x="90.0" y="640.0"/>
      <point x="69.75" y="640.0" type="curve" smooth="yes"/>
      <point x="27.0" y="640.0"/>
      <point x="22.0" y="706.5"/>
      <point x="-59.75" y="706.5" type="curve" smooth="yes"/>
      <point x="-115.25" y="706.5"/>
      <point x="-153.5" y="664.75"/>
      <point x="-153.5" y="592.5" type="curve"/>
      <point x="-99.25" y="592.5" type="line"/>
      <point x="-99.25" y="626.25"/>
      <point x="-83.0" y="641.25"/>
      <point x="-59.75" y="641.25" type="curve" smooth="yes"/>
      <point x="-16.5" y="641.25"/>
      <point x="-15.25" y="574.25"/>
    </contour>
  </outline>
</glyph>
<glyph name="ogonekcomb" format="2">
  <unicode hex="0328"/>
  <anchor x="0.0" y="0.0" name="_ogonek"/>
  <outline>
    <contour>
      <point x="53.0" y="-220.0" type="curve" smooth="yes"/>
      <point x="74.0" y="-220.0"/>
      <point x="97.75" y="-217.5"/>
      <point x="124.0" y="-210.25" type="curve"/>
      <point x="106.75" y="-143.0" type="line"/>
      <point x="95.25" y="-146.5"/>
      <point x="82.75" y="-148.25"/>
      <point x="67.75" y="-148.25" type="curve" smooth="yes"/>
      <point x="29.5" y="-148.25"/>
      <point x="4.75" y="-132.5"/>
      <point x="4.75" y="-96.25" type="curve" smooth="yes"/>
      <point x="4.75" y="-41.75"/>
      <point x="49.0" y="-13.0"/>
      <point x="82.5" y="0.0" type="curve"/>
      <point x="65.75" y="6.0" type="line"/>
      <point x="23.0" y="17.0" type="line"/>
      <point x="0.0" y="0.0" type="line" smooth="yes"/>
      <point x="-49.25" y="-35.5"/>
      <point x="-71.25" y="-77.25"/>
      <point x="-71.0" y="-116.75" type="curve" smooth="yes"/>
      <point x="-70.5" y="-181.75"/>
      <point x="-23.0" y="-220.0"/>
    </contour>
  </outline>
</glyph>
<glyph name="slashlongcomb" format="2">
  <unicode hex="0338"/>
  <anchor x="288.0" y="264.0" name="_center"/>
  <outline>
    <contour>
      <point x="16.5" y="-40.0" type="line"/>
      <point x="90.5" y="-40.0" type="line"/>
      <point x="553.5" y="560.0" type="line"/>
      <point x="479.5" y="560.0" type="line"/>
    </contour>
  </outline>
</glyph>
<glyph name="perthousand" format="2">
  <advance width="1066.0"/>
  <unicode hex="2030"/>
  <outline>
    <contour>
      <point x="82.0" y="0.0" type="line"/>
      <point x="154.5" y="0.0" type="line"/>
      <point x="651.5" y="700.0" type="line"/>
      <point x="580.0" y="700.0" type="line"/>
    </contour>
    <contour>
      <point x="285.0" y="298.75" type="curve" smooth="yes"/>
      <point x="373.75" y="298.75"/>
      <point x="441.0" y="369.0"/>
      <point x="441.0" y="450.75" type="curve" smooth="yes"/>
      <point x="441.0" y="532.75"/>
      <point x="374.5" y="605.75"/>
      <point x="285.0" y="605.75" type="curve" smooth="yes"/>
      <point x="196.25" y="605.75"/>
      <point x="130.0" y="533.5"/>
      <point x="130.0" y="450.75" type="curve" smooth="yes"/>
      <point x="130.0" y="369.0"/>
      <point x="196.25" y="298.75"/>
    </contour>
    <contour>
      <point x="285.0" y="355.5" type="curve" smooth="yes"/>
      <point x="230.5" y="355.5"/>
      <point x="193.5" y="398.0"/>
      <point x="193.5" y="450.0" type="curve" smooth="yes"/>
      <point x="193.5" y="505.5"/>
      <point x="230.5" y="548.0"/>
      <point x="285.0" y="548.0" type="curve" smooth="yes"/>
      <point x="340.25" y="548.0"/>
      <point x="377.25" y="505.5"/>
      <point x="377.25" y="450.0" type="curve" smooth="yes"/>
      <point x="378.5" y="396.25"/>
      <point x="342.0" y="355.25"/>
    </contour>
    <contour>
      <point x="455.0" y="95.75" type="curve" smooth="yes"/>
      <point x="543.75" y="95.75"/>
      <point x="611.0" y="166.0"/>
      <point x="611.0" y="247.75" type="curve" smooth="yes"/>
      <point x="611.0" y="329.5"/>
      <point x="544.75" y="402.75"/>
      <point x="455.0" y="402.75" type="curve" smooth="yes"/>
      <point x="366.25" y="402.75"/>
      <point x="300.0" y="330.5"/>
      <point x="300.0" y="247.75" type="curve" smooth="yes"/>
      <point x="300.0" y="166.0"/>
      <point x="366.25" y="95.75"/>
    </contour>
    <contour>
      <point x="455.0" y="152.5" type="curve" smooth="yes"/>
      <point x="400.5" y="152.5"/>
      <point x="363.5" y="195.0"/>
      <point x="363.5" y="247.0" type="curve" smooth="yes"/>
      <point x="363.5" y="302.5"/>
      <point x="400.5" y="345.0"/>
      <point x="455.0" y="345.0" type="curve" smooth="yes"/>
      <point x="510.5" y="345.0"/>
      <point x="547.25" y="302.5"/>
      <point x="547.25" y="247.0" type="curve" smooth="yes"/>
      <point x="548.5" y="193.25"/>
      <point x="512.25" y="152.5"/>
    </contour>
    <contour>
      <point x="890.0" y="-8.0" type="curve" smooth="yes"/>
      <point x="978.75" y="-8.0"/>
      <point x="1046.0" y="62.25"/>
      <point x="1046.0" y="144.0" type="curve" smooth="yes"/>
      <point x="1046.0" y="226.0"/>
      <point x="979.5" y="299.0"/>
      <point x="890.0" y="299.0" type="curve" smooth="yes"/>
      <point x="801.25" y="299.0"/>
      <point x="735.0" y="226.75"/>
      <point x="735.0" y="144.0" type="curve" smooth="yes"/>
      <point x="735.0" y="62.25"/>
      <point x="801.25" y="-8.0"/>
    </contour>
    <contour>
      <point x="890.0" y="48.75" type="curve" smooth="yes"/>
      <point x="835.5" y="48.75"/>
      <point x="798.5" y="91.25"/>
      <point x="798.5" y="143.25" type="curve" smooth="yes"/>
      <point x="798.5" y="198.75"/>
      <point x="835.5" y="241.25"/>
      <point x="890.0" y="241.25" type="curve" smooth="yes"/>
      <point x="945.25" y="241.25"/>
      <point x="982.25" y="198.75"/>
      <point x="982.25" y="143.25" type="curve" smooth="yes"/>
      <point x="983.5" y="89.5"/>
      <point x="947.0" y="48.5"/>
    </contour>
  </outline>
</glyph>
<glyph name="won" format="2">
  <advance width="900.5"/>
  <unicode hex="20A9"/>
  <outline>
    <contour>
      <point x="215.5" y="30.0" type="line"/>
      <point x="299.5" y="30.0" type="line"/>
      <point x="427.0" y="446.5" type="line" smooth="yes"/>
      <point x="442.75" y="498.75"/>
      <point x="448.0" y="521.25"/>
      <point x="451.75" y="547.0" type="curve"/>
      <point x="456.0" y="547.0" type="line"/>
      <point x="460.25" y="521.25"/>
      <point x="465.75" y="499.5"/>
      <point x="481.5" y="446.5" type="curve" smooth="yes"/>
      <point x="601.5" y="30.0" type="line"/>
      <point x="685.5" y="30.0" type="line"/>
      <point x="873.0" y="670.0" type="line"/>
      <point x="772.5" y="670.0" type="line"/>
      <point x="663.25" y="260.0" type="line" smooth="yes"/>
      <point x="649.5" y="207.75"/>
      <point x="648.5" y="181.25"/>
      <point x="644.0" y="156.25" type="curve"/>
      <point x="640.25" y="156.25" type="line"/>
      <point x="636.5" y="181.25"/>
      <point x="635.0" y="206.75"/>
      <point x="620.0" y="260.0" type="curve" smooth="yes"/>
      <point x="503.75" y="670.0" type="line"/>
      <point x="404.0" y="670.0" type="line"/>
      <point x="285.5" y="260.0" type="line" smooth="yes"/>
      <point x="270.0" y="208.0"/>
      <point x="267.5" y="181.25"/>
      <point x="263.75" y="156.25" type="curve"/>
      <point x="260.75" y="156.25" type="line"/>
      <point x="257.0" y="181.25"/>
      <point x="254.75" y="206.0"/>
      <point x="240.75" y="260.0" type="curve" smooth="yes"/>
      <point x="134.5" y="670.0" type="line"/>
      <point x="31.0" y="670.0" type="line"/>
    </contour>
    <contour>
      <point x="17.5" y="287.5" type="line"/>
      <point x="883.0" y="287.5" type="line"/>
      <point x="883.0" y="349.5" type="line"/>
      <point x="17.5" y="349.5" type="line"/>
    </contour>
    <contour>
      <point x="17.5" y="395.0" type="line"/>
      <point x="883.0" y="395.0" type="line"/>
      <point x="883.0" y="457.0" type="line"/>
      <point x="17.5" y="457.0" type="line"/>
    </contour>
  </outline>
</glyph>
<glyph name="rupeeIndian" format="2">
  <advance width="616.0"/>
  <unicode hex="20B9"/>
  <outline>
    <contour>
      <point x="360.5" y="27.5" type="line"/>
      <point x="477.5" y="27.5" type="line"/>
      <point x="267.0" y="303.5" type="line"/>
      <point x="261.0" y="266.75" type="line"/>
      <point x="376.5" y="272.75"/>
      <point x="475.25" y="342.5"/>
      <point x="475.25" y="467.25" type="curve" smooth="yes"/>
      <point x="475.25" y="598.0"/>
      <point x="370.25" y="670.0"/>
      <point x="238.75" y="670.0" type="curve" smooth="yes"/>
      <point x="39.0" y="670.0" type="line"/>
      <point x="39.0" y="579.25" type="line"/>
      <point x="224.5" y="579.25" type="line" smooth="yes"/>
      <point x="319.5" y="579.25"/>
      <point x="375.25" y="547.75"/>
      <point x="375.25" y="467.0" type="curve" smooth="yes"/>
      <point x="375.25" y="383.75"/>
      <point x="319.5" y="352.0"/>
      <point x="224.5" y="352.0" type="curve" smooth="yes"/>
      <point x="39.0" y="352.0" type="line"/>
      <point x="39.0" y="262.5" type="line"/>
      <point x="179.75" y="262.5" type="line"/>
    </contour>
    <contour>
      <point x="39.0" y="427.75" type="line"/>
      <point x="545.25" y="427.75" type="line"/>
      <point x="595.75" y="503.0" type="line"/>
      <point x="90.5" y="503.0" type="line"/>
    </contour>
    <contour>
      <point x="202.5" y="594.75" type="line"/>
      <point x="578.0" y="594.75" type="line"/>
      <point x="629.25" y="670.0" type="line"/>
      <point x="202.5" y="670.0" type="line"/>
    </contour>
  </outline>
</glyph>
<glyph name="literSign" format="2">
  <advance width="500.0"/>
  <unicode hex="2113"/>
  <outline>
    <contour>
      <point x="89.5" y="124.25"/>
      <point x="147.5" y="-12.5"/>
      <point x="309.5" y="-12.5" type="curve" smooth="yes"/>
      <point x="396.0" y="-12.5"/>
      <point x="457.5" y="53.25"/>
      <point x="490.0" y="141.75" type="curve"/>
      <point x="437.0" y="173.5" type="line"/>
      <point x="405.75" y="88.75"/>
      <point x="358.0" y="68.25"/>
      <point x="313.25" y="68.25" type="curve" smooth="yes"/>
      <point x="207.25" y="68.25"/>
      <point x="184.25" y="184.0"/>
      <point x="184.25" y="282.5" type="curve" smooth="yes"/>
      <point x="184.25" y="359.0"/>
      <point x="198.75" y="448.25"/>
      <point x="222.25" y="530.75" type="curve" smooth="yes"/>
      <point x="241.25" y="596.25"/>
      <point x="273.25" y="625.5"/>
      <point x="299.5" y="625.5" type="curve" smooth="yes"/>
      <point x="354.25" y="625.5"/>
      <point x="351.0" y="549.0"/>
      <point x="338.25" y="502.75" type="curve" smooth="yes"/>
      <point x="290.25" y="344.0"/>
      <point x="168.0" y="253.25"/>
      <point x="2.0" y="138.5" type="curve"/>
      <point x="43.0" y="84.25" type="line"/>
      <point x="213.0" y="201.5"/>
      <point x="359.25" y="306.25"/>
      <point x="415.25" y="491.5" type="curve" smooth="yes"/>
      <point x="447.25" y="594.75"/>
      <point x="422.0" y="714.75"/>
      <point x="300.0" y="714.75" type="curve" smooth="yes"/>
      <point x="233.5" y="714.75"/>
      <point x="162.75" y="666.25"/>
      <point x="130.75" y="554.75" type="curve" smooth="yes"/>
      <point x="107.0" y="470.75"/>
      <point x="89.5" y="373.75"/>
      <point x="89.5" y="284.75" type="curve" smooth="yes"/>
    </contour>
  </outline>
</glyph>
<glyph name="Ohm" format="2">
  <advance width="788.0"/>
  <unicode hex="2126"/>
  <outline>
    <contour>
      <point x="21.5" y="0.0" type="line"/>
      <point x="325.0" y="0.0" type="line"/>
      <point x="325.0" y="69.0" type="line"/>
      <point x="243.75" y="88.25"/>
      <point x="142.25" y="185.0"/>
      <point x="142.25" y="349.0" type="curve" smooth="yes"/>
      <point x="142.25" y="514.0"/>
      <point x="245.75" y="621.5"/>
      <point x="393.25" y="621.5" type="curve" smooth="yes"/>
      <point x="541.25" y="621.5"/>
      <point x="644.25" y="514.75"/>
      <point x="644.25" y="349.75" type="curve" smooth="yes"/>
      <point x="644.25" y="188.75"/>
      <point x="546.75" y="91.25"/>
      <point x="467.0" y="69.0" type="curve"/>
      <point x="467.0" y="0.0" type="line"/>
      <point x="766.5" y="0.0" type="line"/>
      <point x="766.5" y="90.25" type="line"/>
      <point x="637.5" y="90.25" type="line"/>
      <point x="637.5" y="93.0" type="line"/>
      <point x="693.5" y="136.25"/>
      <point x="743.0" y="256.0"/>
      <point x="743.0" y="349.75" type="curve" smooth="yes"/>
      <point x="743.0" y="553.25"/>
      <point x="598.5" y="713.0"/>
      <point x="393.25" y="713.0" type="curve" smooth="yes"/>
      <point x="188.0" y="713.0"/>
      <point x="43.5" y="551.75"/>
      <point x="43.5" y="349.0" type="curve" smooth="yes"/>
      <point x="43.5" y="249.0"/>
      <point x="92.0" y="136.0"/>
      <point x="148.5" y="93.0" type="curve"/>
      <point x="148.5" y="90.25" type="line"/>
      <point x="21.5" y="90.25" type="line"/>
    </contour>
  </outline>
</glyph>
<glyph name="upDownArrow" format="2">
  <advance width="600.0"/>
  <unicode hex="2195"/>
  <outline>
    <contour>
      <point x="299.25" y="-26.25" type="line"/>
      <point x="533.5" y="215.75" type="line"/>
      <point x="471.0" y="275.0" type="line"/>
      <point x="352.25" y="144.0" type="line"/>
      <point x="345.75" y="146.5" type="line"/>
      <point x="345.75" y="591.0" type="line"/>
      <point x="352.25" y="593.5" type="line"/>
      <point x="471.5" y="461.75" type="line"/>
      <point x="535.0" y="521.0" type="line"/>
      <point x="300.75" y="763.0" type="line"/>
      <point x="66.5" y="521.0" type="line"/>
      <point x="129.0" y="461.75" type="line"/>
      <point x="247.75" y="592.75" type="line"/>
      <point x="254.25" y="590.25" type="line"/>
      <point x="254.25" y="145.75" type="line"/>
      <point x="247.75" y="143.25" type="line"/>
      <point x="128.5" y="275.0" type="line"/>
      <point x="65.0" y="215.75" type="line"/>
    </contour>
  </outline>
</glyph>
<glyph name="infinity" format="2">
  <advance width="764.5"/>
  <unicode hex="221E"/>
  <outline>
    <contour>
      <point x="209.0" y="99.5" type="curve" smooth="yes"/>
      <point x="297.0" y="99.5"/>
      <point x="365.25" y="161.25"/>
      <point x="408.25" y="255.25" type="curve"/>
      <point x="350.5" y="255.25" type="line"/>
      <point x="389.0" y="161.25"/>
      <point x="465.75" y="99.5"/>
      <point x="555.5" y="99.5" type="curve" smooth="yes"/>
      <point x="666.0" y="99.5"/>
      <point x="747.0" y="181.0"/>
      <point x="747.0" y="287.0" type="curve" smooth="yes"/>
      <point x="747.0" y="392.0"/>
      <point x="666.0" y="474.5"/>
      <point x="555.5" y="474.5" type="curve" smooth="yes"/>
      <point x="465.75" y="474.5"/>
      <point x="389.0" y="411.75"/>
      <point x="348.0" y="318.75" type="curve"/>
      <point x="405.75" y="318.75" type="line"/>
      <point x="365.25" y="411.75"/>
      <point x="297.0" y="474.5"/>
      <point x="209.0" y="474.5" type="curve" smooth="yes"/>
      <point x="98.5" y="474.5"/>
      <point x="17.5" y="392.0"/>
      <point x="17.5" y="287.0" type="curve" smooth="yes"/>
      <point x="17.5" y="181.0"/>
      <point x="98.5" y="99.5"/>
    </contour>
    <contour>
      <point x="207.25" y="185.0" type="curve" smooth="yes"/>
      <point x="154.0" y="185.0"/>
      <point x="102.5" y="226.25"/>
      <point x="102.5" y="287.0" type="curve" smooth="yes"/>
      <point x="102.5" y="347.75"/>
      <point x="154.0" y="389.0"/>
      <point x="207.25" y="389.0" type="curve" smooth="yes"/>
      <point x="279.75" y="389.0"/>
      <point x="321.75" y="327.25"/>
      <point x="357.25" y="239.25" type="curve"/>
      <point x="357.25" y="334.75" type="line"/>
      <point x="321.75" y="246.75"/>
      <point x="279.75" y="185.0"/>
    </contour>
    <contour>
      <point x="559.25" y="185.0" type="curve" smooth="yes"/>
      <point x="486.75" y="185.0"/>
      <point x="432.75" y="246.75"/>
      <point x="397.25" y="334.75" type="curve"/>
      <point x="397.25" y="239.25" type="line"/>
      <point x="432.75" y="327.25"/>
      <point x="486.75" y="389.0"/>
      <point x="559.25" y="389.0" type="curve" smooth="yes"/>
      <point x="611.75" y="389.0"/>
      <point x="665.0" y="347.75"/>
      <point x="665.0" y="287.0" type="curve" smooth="yes"/>
      <point x="665.0" y="226.25"/>
      <point x="611.75" y="185.0"/>
    </contour>
  </outline>
</glyph>
<glyph name="integral" format="2">
  <advance width="422.75"/>
  <unicode hex="222B"/>
  <outline>
    <contour>
      <point x="-120.0" y="-223.5" type="line"/>
      <point x="-95.75" y="-229.25"/>
      <point x="-74.5" y="-233.0"/>
      <point x="-41.75" y="-233.0" type="curve" smooth="yes"/>
      <point x="52.25" y="-233.0"/>
      <point x="126.75" y="-190.75"/>
      <point x="157.75" y="-51.75" type="curve" smooth="yes"/>
      <point x="280.75" y="502.0" type="line" smooth="yes"/>
      <point x="302.25" y="598.0"/>
      <point x="330.0" y="627.75"/>
      <point x="397.5" y="627.75" type="curve" smooth="yes"/>
      <point x="410.75" y="627.75"/>
      <point x="424.75" y="625.75"/>
      <point x="437.5" y="620.75" type="curve"/>
      <point x="452.75" y="703.75" type="line"/>
      <point x="436.25" y="709.25"/>
      <point x="417.0" y="713.25"/>
      <point x="394.75" y="713.25" type="curve" smooth="yes"/>
      <point x="296.75" y="713.25"/>
      <point x="223.0" y="666.25"/>
      <point x="192.0" y="526.5" type="curve" smooth="yes"/>
      <point x="64.5" y="-49.75" type="line" smooth="yes"/>
      <point x="48.25" y="-121.75"/>
      <point x="16.5" y="-147.75"/>
      <point x="-44.5" y="-147.75" type="curve" smooth="yes"/>
      <point x="-67.75" y="-147.75"/>
      <point x="-84.25" y="-145.75"/>
      <point x="-106.0" y="-139.5" type="curve"/>
    </contour>
  </outline>
</glyph>
<glyph name="approxequal" format="2">
  <advance width="596.0"/>
  <unicode hex="2248"/>
  <outline>
    <contour>
      <point x="77.75" y="174.25" type="line"/>
      <point x="150.5" y="204.25"/>
      <point x="223.5" y="204.25"/>
      <point x="296.25" y="174.25" type="curve" smooth="yes"/>
      <point x="366.0" y="145.25"/>
      <point x="442.0" y="144.25"/>
      <point x="514.75" y="174.25" type="curve"/>
      <point x="514.75" y="255.75" type="line"/>
      <point x="442.0" y="225.75"/>
      <point x="366.0" y="226.75"/>
      <point x="296.25" y="255.75" type="curve" smooth="yes"/>
      <point x="223.5" y="285.75"/>
      <point x="150.5" y="285.75"/>
      <point x="77.75" y="255.75" type="curve"/>
    </contour>
    <contour>
      <point x="77.75" y="377.5" type="line"/>
      <point x="150.5" y="407.5"/>
      <point x="223.5" y="407.5"/>
      <point x="296.25" y="377.5" type="curve" smooth="yes"/>
      <point x="366.0" y="348.5"/>
      <point x="442.0" y="347.5"/>
      <point x="514.75" y="377.5" type="curve"/>
      <point x="514.75" y="459.0" type="line"/>
      <point x="442.0" y="429.0"/>
      <point x="366.0" y="430.0"/>
      <point x="296.25" y="459.0" type="curve" smooth="yes"/>
      <point x="223.5" y="489.0"/>
      <point x="150.5" y="489.0"/>
      <point x="77.75" y="459.0" type="curve"/>
    </contour>
  </outline>
</glyph>
<glyph name="whiteFourPointedStar" format="2">
  <advance width="585.0"/>
  <unicode hex="2727"/>
  <outline>
    <contour>
      <point x="286.0" y="39.0" type="curve"/>
      <point x="298.0" y="39.0" type="line"/>
      <point x="385.0" y="248.0"/>
      <point x="404.0" y="271.0"/>
      <point x="580.0" y="335.0" type="curve"/>
      <point x="580.0" y="349.0" type="line"/>
      <point x="404.0" y="413.0"/>
      <point x="385.0" y="436.0"/>
      <point x="298.0" y="645.0" type="curve"/>
      <point x="286.0" y="645.0" type="line"/>
      <point x="199.0" y="436.0"/>
      <point x="180.0" y="413.0"/>
      <point x="5.0" y="349.0" type="curve"/>
      <point x="5.0" y="335.0" type="line"/>
      <point x="180.0" y="271.0"/>
      <point x="199.0" y="248.0"/>
    </contour>
    <contour>
      <point x="290.0" y="67.0" type="line"/>
      <point x="264.5" y="271.75"/>
      <point x="228.25" y="318.25"/>
      <point x="33.0" y="340.0" type="curve"/>
      <point x="33.0" y="344.0" type="line"/>
      <point x="228.25" y="365.75"/>
      <point x="264.5" y="412.25"/>
      <point x="290.0" y="617.0" type="curve"/>
      <point x="294.0" y="617.0" type="line"/>
      <point x="319.5" y="412.25"/>
      <point x="355.75" y="365.75"/>
      <point x="552.0" y="344.0" type="curve"/>
      <point x="552.0" y="340.0" type="line"/>
      <point x="355.75" y="318.25"/>
      <point x="319.5" y="271.75"/>
      <point x="294.0" y="67.0" type="curve"/>
    </contour>
  </outline>
</glyph>
<glyph name="sparkles" format="2">
  <advance width="724.0"/>
  <unicode hex="2728"/>
  <outline>
    <contour>
      <point x="139.0" y="285.5" type="curve"/>
      <point x="149.25" y="448.5"/>
      <point x="162.0" y="459.0"/>
      <point x="272.0" y="463.0" type="curve"/>
      <point x="162.0" y="470.25"/>
      <point x="149.25" y="480.25"/>
      <point x="139.0" y="640.5" type="curve"/>
      <point x="128.75" y="480.25"/>
      <point x="116.0" y="470.25"/>
      <point x="6.0" y="463.0" type="curve"/>
      <point x="116.0" y="459.0"/>
      <point x="128.75" y="448.5"/>
    </contour>
    <contour>
      <point x="272.0" y="-22.5" type="curve"/>
      <point x="282.25" y="140.5"/>
      <point x="295.0" y="150.75"/>
      <point x="405.0" y="155.0" type="curve"/>
      <point x="295.0" y="162.25"/>
      <point x="282.25" y="172.25"/>
      <point x="272.0" y="332.5" type="curve"/>
      <point x="261.75" y="172.25"/>
      <point x="249.0" y="162.25"/>
      <point x="139.0" y="155.0" type="curve"/>
      <point x="249.0" y="150.75"/>
      <point x="261.75" y="140.5"/>
    </contour>
    <contour>
      <point x="473.0" y="60.75" type="curve"/>
      <point x="497.25" y="347.5"/>
      <point x="528.0" y="372.75"/>
      <point x="718.0" y="384.0" type="curve"/>
      <point x="528.0" y="400.25"/>
      <point x="497.25" y="423.5"/>
      <point x="473.0" y="707.25" type="curve"/>
      <point x="448.75" y="423.5"/>
      <point x="418.0" y="400.25"/>
      <point x="228.0" y="384.0" type="curve"/>
      <point x="418.0" y="372.75"/>
      <point x="448.75" y="347.5"/>
    </contour>
  </outline>
</glyph>
<glyph name="circumflexcomb.case" format="2">
  <anchor x="0.0" y="700.0" name="_top"/>
  <anchor x="0.75" y="851.5" name="top"/>
  <outline>
    <contour>
      <point x="-146.5" y="740.0" type="line"/>
      <point x="-59.5" y="740.0" type="line"/>
      <point x="0.75" y="803.75" type="line"/>
      <point x="3.0" y="803.75" type="line"/>
      <point x="61.5" y="740.0" type="line"/>
      <point x="146.5" y="740.0" type="line"/>
      <point x="34.25" y="856.5" type="line"/>
      <point x="-30.5" y="856.5" type="line"/>
    </contour>
  </outline>
</glyph>
<glyph name="comma.ss04" format="2">
  <advance width="242.25"/>
  <outline>
    <contour>
      <point x="78.5" y="-169.25" type="line"/>
      <point x="156.0" y="-137.75"/>
      <point x="201.25" y="-79.25"/>
      <point x="201.25" y="-2.25" type="curve" smooth="yes"/>
      <point x="201.25" y="69.25"/>
      <point x="165.0" y="114.25"/>
      <point x="113.0" y="114.25" type="curve" smooth="yes"/>
      <point x="77.0" y="114.25"/>
      <point x="49.75" y="92.75"/>
      <point x="49.75" y="58.25" type="curve" smooth="yes"/>
      <point x="49.75" y="25.5"/>
      <point x="71.75" y="2.25"/>
      <point x="100.5" y="2.25" type="curve" smooth="yes"/>
      <point x="114.5" y="2.25"/>
      <point x="123.5" y="6.25"/>
      <point x="132.0" y="15.75" type="curve"/>
      <point x="134.75" y="15.75" type="line"/>
      <point x="136.5" y="10.5"/>
      <point x="137.25" y="4.5"/>
      <point x="137.25" y="-5.0" type="curve" smooth="yes"/>
      <point x="137.25" y="-68.5"/>
      <point x="97.0" y="-92.0"/>
      <point x="52.75" y="-113.5" type="curve"/>
    </contour>
  </outline>
</glyph>
<glyph name="f_i.ss11" format="2">
  <advance width="595.5"/>
  <anchor x="477.25" y="0.0" name="bottom_1"/>
  <anchor x="443.5" y="0.0" name="ogonek_1"/>
  <anchor x="477.25" y="493.75" name="top_1"/>
  <anchor x="369.75" y="0.0" name="caret_1"/>
  <outline>
    <contour>
      <point x="116.0" y="0.0" type="line"/>
      <point x="209.75" y="0.0" type="line"/>
      <point x="209.75" y="525.75" type="line" smooth="yes"/>
      <point x="209.75" y="589.75"/>
      <point x="255.75" y="628.0"/>
      <point x="320.5" y="628.0" type="curve" smooth="yes"/>
      <point x="389.0" y="628.0"/>
      <point x="431.0" y="583.5"/>
      <point x="431.0" y="511.5" type="curve"/>
      <point x="394.75" y="548.0" type="line"/>
      <point x="554.75" y="548.0" type="line"/>
      <point x="524.0" y="514.0" type="line"/>
      <point x="524.0" y="636.0"/>
      <point x="442.0" y="713.0"/>
      <point x="320.5" y="713.0" type="curve" smooth="yes"/>
      <point x="202.25" y="713.0"/>
      <point x="116.0" y="641.25"/>
      <point x="116.0" y="530.0" type="curve" smooth="yes"/>
    </contour>
    <contour>
      <point x="17.75" y="409.75" type="line"/>
      <point x="361.75" y="409.75" type="line"/>
      <point x="361.75" y="493.75" type="line"/>
      <point x="17.75" y="493.75" type="line"/>
    </contour>
    <component base="idotless" xOffset="358.75"/>
  </outline>
</glyph>
<glyph name="lari.tf" format="2">
  <advance width="596.0"/>
  <outline>
    <contour>
      <point x="487.5" y="396.25" type="curve"/>
      <point x="582.25" y="395.75" type="line"/>
      <point x="567.5" y="560.25"/>
      <point x="478.0" y="675.5"/>
      <point x="311.25" y="675.5" type="curve" smooth="yes"/>
      <point x="137.25" y="675.5"/>
      <point x="37.75" y="534.25"/>
      <point x="37.75" y="364.25" type="curve" smooth="yes"/>
      <point x="37.75" y="261.5"/>
      <point x="85.5" y="169.5"/>
      <point x="157.75" y="120.5" type="curve"/>
      <point x="157.75" y="117.75" type="line"/>
      <point x="18.25" y="117.75" type="line"/>
      <point x="18.25" y="27.5" type="line"/>
      <point x="566.0" y="27.5" type="line"/>
      <point x="566.0" y="117.75" type="line"/>
      <point x="406.75" y="117.75" type="line" smooth="yes"/>
      <point x="231.0" y="117.75"/>
      <point x="132.0" y="220.0"/>
      <point x="132.0" y="364.25" type="curve" smooth="yes"/>
      <point x="132.0" y="500.75"/>
      <point x="187.5" y="590.0"/>
      <point x="311.25" y="590.0" type="curve" smooth="yes"/>
      <point x="425.75" y="590.0"/>
      <point x="475.25" y="520.0"/>
    </contour>
    <contour>
      <point x="332.0" y="775.0" type="line"/>
      <point x="332.0" y="395.0" type="line"/>
      <point x="407.0" y="395.0" type="line"/>
      <point x="407.0" y="775.0" type="line"/>
    </contour>
    <contour>
      <point x="214.0" y="775.0" type="line"/>
      <point x="214.0" y="395.0" type="line"/>
      <point x="289.0" y="395.0" type="line"/>
      <point x="289.0" y="775.0" type="line"/>
    </contour>
  </outline>
</glyph>
<glyph name="rupeeIndian.tf" format="2">
  <advance width="596.0"/>
  <outline>
    <contour>
      <point x="339.5" y="27.5" type="line"/>
      <point x="456.5" y="27.5" type="line"/>
      <point x="243.25" y="310.75" type="line"/>
      <point x="246.25" y="270.5" type="line"/>
      <point x="357.75" y="275.25"/>
      <point x="456.5" y="345.0"/>
      <point x="456.5" y="469.75" type="curve" smooth="yes"/>
      <point x="456.5" y="600.5"/>
      <point x="379.0" y="672.5"/>
      <point x="247.5" y="672.5" type="curve" smooth="yes"/>
      <point x="31.5" y="672.5" type="line"/>
      <point x="31.5" y="581.75" type="line"/>
      <point x="228.25" y="581.75" type="line" smooth="yes"/>
      <point x="323.25" y="581.75"/>
      <point x="356.5" y="550.25"/>
      <point x="356.5" y="469.5" type="curve" smooth="yes"/>
      <point x="356.5" y="386.25"/>
      <point x="300.75" y="354.5"/>
      <point x="205.75" y="354.5" type="curve" smooth="yes"/>
      <point x="31.5" y="354.5" type="line"/>
      <point x="31.5" y="265.0" type="line"/>
      <point x="158.75" y="265.0" type="line"/>
    </contour>
    <contour>
      <point x="30.0" y="430.25" type="line"/>
      <point x="498.5" y="430.25" type="line"/>
      <point x="550.0" y="505.5" type="line"/>
      <point x="81.5" y="505.5" type="line"/>
    </contour>
    <contour>
      <point x="163.75" y="596.5" type="line"/>
      <point x="526.0" y="596.5" type="line"/>
      <point x="577.5" y="671.75" type="line"/>
      <point x="163.75" y="671.75" type="line"/>
    </contour>
  </outline>
</glyph>
<glyph name="six.numr" format="2">
  <advance width="325.0"/>
  <outline>
    <contour>
      <point x="166.75" y="362.5" type="curve" smooth="yes"/>
      <point x="126.5" y="362.5"/>
      <point x="96.0" y="392.75"/>
      <point x="96.0" y="435.0" type="curve" smooth="yes"/>
      <point x="96.0" y="477.0"/>
      <point x="127.25" y="505.25"/>
      <point x="169.25" y="505.25" type="curve" smooth="yes"/>
      <point x="204.75" y="505.25"/>
      <point x="236.25" y="474.75"/>
      <point x="236.25" y="434.25" type="curve" smooth="yes"/>
      <point x="236.25" y="389.0"/>
      <point x="201.0" y="362.5"/>
    </contour>
    <contour>
      <point x="166.75" y="307.0" type="curve" smooth="yes"/>
      <point x="247.25" y="307.0"/>
      <point x="298.5" y="364.5"/>
      <point x="298.5" y="434.75" type="curve" smooth="yes"/>
      <point x="298.5" y="527.75"/>
      <point x="218.75" y="573.0"/>
      <point x="148.75" y="549.0" type="curve"/>
      <point x="240.75" y="700.0" type="line"/>
      <point x="168.75" y="700.0" type="line"/>
      <point x="69.5" y="536.5" type="line" smooth="yes"/>
      <point x="53.25" y="510.25"/>
      <point x="33.25" y="471.5"/>
      <point x="33.25" y="434.0" type="curve" smooth="yes"/>
      <point x="33.25" y="362.5"/>
      <point x="84.25" y="307.0"/>
    </contour>
  </outline>
</glyph>
<glyph name="slashlongcomb.case" format="2">
  <anchor x="380.0" y="361.0" name="_center"/>
  <outline>
    <contour>
      <point x="25.0" y="-40.0" type="line"/>
      <point x="112.25" y="-40.0" type="line"/>
      <point x="724.0" y="748.0" type="line"/>
      <point x="636.75" y="748.0" type="line"/>
    </contour>
  </outline>
</glyph>
